<svg width="25" height="22" viewBox="0 0 25 22" fill="none" xmlns="http://www.w3.org/2000/svg">
    <path
        d="M20.8246 3.55427C19.2567 2.83487 17.5754 2.30484 15.8174 2.00127C15.7854 1.99542 15.7534 2.01006 15.737 2.03934C15.5207 2.42393 15.2812 2.92565 15.1135 3.32C13.2227 3.03693 11.3416 3.03693 9.48962 3.32C9.32188 2.91687 9.07365 2.42393 8.85645 2.03934C8.83997 2.01103 8.80797 1.99639 8.77598 2.00127C7.019 2.30387 5.33766 2.8339 3.7688 3.55427C3.75523 3.56013 3.74359 3.56989 3.73583 3.58258C0.546719 8.347 -0.326919 12.9943 0.101658 17.584C0.103597 17.6064 0.116202 17.6279 0.133656 17.6416C2.23775 19.1868 4.27592 20.1248 6.27627 20.7466C6.30827 20.7563 6.3422 20.7446 6.36256 20.7183C6.83574 20.0721 7.25753 19.3908 7.61921 18.6743C7.64054 18.6323 7.62018 18.5825 7.57654 18.5659C6.9075 18.3122 6.27045 18.0027 5.65764 17.6513C5.60916 17.623 5.60528 17.5537 5.64989 17.5205C5.77885 17.4239 5.90781 17.3234 6.03095 17.2218C6.05325 17.2033 6.08428 17.1994 6.11046 17.2111C10.1364 19.0491 14.4949 19.0491 18.4733 17.2111C18.4994 17.1984 18.5305 17.2023 18.5537 17.2209C18.6769 17.3224 18.8058 17.4239 18.9358 17.5205C18.9804 17.5537 18.9775 17.623 18.929 17.6513C18.3162 18.0096 17.6791 18.3122 17.0091 18.565C16.9655 18.5816 16.9461 18.6323 16.9674 18.6743C17.3368 19.3898 17.7586 20.0711 18.2231 20.7173C18.2425 20.7446 18.2774 20.7563 18.3094 20.7466C20.3194 20.1248 22.3576 19.1868 24.4617 17.6416C24.4801 17.6279 24.4918 17.6074 24.4937 17.585C25.0066 12.2788 23.6346 7.66957 20.8566 3.58356C20.8498 3.56989 20.8382 3.56013 20.8246 3.55427ZM8.22038 14.7894C7.00834 14.7894 6.00962 13.6766 6.00962 12.31C6.00962 10.9435 6.98895 9.83069 8.22038 9.83069C9.4615 9.83069 10.4505 10.9532 10.4311 12.31C10.4311 13.6766 9.45181 14.7894 8.22038 14.7894ZM16.3944 14.7894C15.1823 14.7894 14.1836 13.6766 14.1836 12.31C14.1836 10.9435 15.1629 9.83069 16.3944 9.83069C17.6355 9.83069 18.6245 10.9532 18.6051 12.31C18.6051 13.6766 17.6355 14.7894 16.3944 14.7894Z"
        fill="currentColor" />
</svg>
    